<svg width="74" height="23" viewBox="0 0 74 23" fill="none" xmlns="http://www.w3.org/2000/svg"><path d="M1.35742 18V3.78125H4.84375V9.32812H9.76562V3.78125H13.252V18H9.76562V12.0137H4.84375V18H1.35742ZM15.2637 15.0312C15.2637 13.8789 15.7064 13.0195 16.5918 12.4531C17.4772 11.8802 18.5938 11.5938 19.9414 11.5938H21.8848V11.0664C21.8848 10.6693 21.7839 10.3503 21.582 10.1094C21.3802 9.86198 21.0221 9.73828 20.5078 9.73828C19.9935 9.73828 19.6257 9.83919 19.4043 10.041C19.1895 10.2428 19.082 10.4967 19.082 10.8027V10.9883H15.8008V10.8027C15.8008 9.8457 16.2533 9.07096 17.1582 8.47852C18.0632 7.88607 19.2318 7.58984 20.6641 7.58984C22.1159 7.58984 23.2454 7.87305 24.0527 8.43945C24.86 9.00586 25.2637 9.89453 25.2637 11.1055V15.7441C25.2637 16.1543 25.3027 16.5449 25.3809 16.916C25.459 17.2806 25.5632 17.5898 25.6934 17.8438V18H22.3535C22.2819 17.8503 22.2168 17.6615 22.1582 17.4336C22.1061 17.1992 22.0671 16.9681 22.041 16.7402C21.8522 17.1113 21.4714 17.4434 20.8984 17.7363C20.332 18.0293 19.6289 18.1758 18.7891 18.1758C17.7734 18.1758 16.9303 17.9186 16.2598 17.4043C15.5957 16.8835 15.2637 16.0924 15.2637 15.0312ZM18.6523 14.7188C18.6523 15.1094 18.763 15.4284 18.9844 15.6758C19.2122 15.9232 19.5703 16.0469 20.0586 16.0469C20.6055 16.0469 21.0449 15.8776 21.377 15.5391C21.7155 15.2005 21.8848 14.7773 21.8848 14.2695V13.4785H20.5371C19.8861 13.4785 19.4076 13.5827 19.1016 13.791C18.8021 13.9993 18.6523 14.3086 18.6523 14.7188ZM27.041 14.7285L30.293 14.748V14.9336C30.293 15.3698 30.4329 15.6823 30.7129 15.8711C30.9928 16.0534 31.377 16.1445 31.8652 16.1445C32.36 16.1445 32.7246 16.0566 32.959 15.8809C33.1999 15.6986 33.3203 15.4577 33.3203 15.1582C33.3203 14.8522 33.1771 14.6276 32.8906 14.4844C32.6107 14.3411 31.9141 14.1621 30.8008 13.9473C29.5573 13.7064 28.6719 13.3255 28.1445 12.8047C27.6172 12.2773 27.3535 11.6068 27.3535 10.793C27.3535 9.77734 27.7637 8.98633 28.584 8.41992C29.4043 7.85352 30.5176 7.57031 31.9238 7.57031C33.3236 7.57031 34.4401 7.86979 35.2734 8.46875C36.1068 9.0612 36.5202 9.875 36.5137 10.9102V11.0469H33.2715V10.8613C33.2715 10.5098 33.1576 10.2363 32.9297 10.041C32.7083 9.8457 32.3633 9.74805 31.8945 9.74805C31.4453 9.74805 31.1165 9.82292 30.9082 9.97266C30.7064 10.1159 30.6055 10.3177 30.6055 10.5781C30.6055 10.8385 30.7422 11.0469 31.0156 11.2031C31.2956 11.3529 32.002 11.5352 33.1348 11.75C34.3717 11.9844 35.2702 12.3522 35.8301 12.8535C36.39 13.3483 36.6699 14.0286 36.6699 14.8945C36.6699 15.9818 36.2598 16.8184 35.4395 17.4043C34.6191 17.9902 33.4375 18.2832 31.8945 18.2832C30.3646 18.2832 29.1732 17.9902 28.3203 17.4043C27.474 16.8184 27.0475 15.972 27.041 14.8652V14.7285ZM38.6816 18V3.78125H42.168V9.32812H47.0898V3.78125H50.5762V18H47.0898V12.0137H42.168V18H38.6816Z" fill="#F4A261"/><path d="M41.3574 18V3.78125H44.8438V9.32812H49.7656V3.78125H53.252V18H49.7656V12.0137H44.8438V18H41.3574ZM55.6543 14.0156V7.87305H59.043V14.0352C59.043 14.6667 59.1667 15.0996 59.4141 15.334C59.6615 15.5684 59.9902 15.6855 60.4004 15.6855C60.7845 15.6855 61.1263 15.5716 61.4258 15.3438C61.7253 15.1094 61.9466 14.8262 62.0898 14.4941V7.87305H65.4688V18H62.2266L62.168 16.877H62.1191C61.8522 17.2871 61.4583 17.6126 60.9375 17.8535C60.4167 18.0879 59.8242 18.2051 59.1602 18.2051C58.151 18.2051 57.3145 17.8828 56.6504 17.2383C55.9863 16.5938 55.6543 15.5195 55.6543 14.0156ZM66.6406 10.3047V7.87305H73.2422V10.3047H66.6406ZM68.0566 14.7969V8.95703L68.0859 8.69336V5.42188H71.416V14.5723C71.416 15.0671 71.5007 15.4023 71.6699 15.5781C71.8392 15.7474 72.0671 15.832 72.3535 15.832C72.5033 15.832 72.6497 15.8158 72.793 15.7832C72.9362 15.7441 73.0697 15.6986 73.1934 15.6465V17.9805C73.0436 18.0521 72.819 18.1172 72.5195 18.1758C72.2201 18.2409 71.8815 18.2734 71.5039 18.2734C70.4557 18.2734 69.6191 17.9935 68.9941 17.4336C68.3691 16.8737 68.0566 15.9948 68.0566 14.7969Z" fill="#E76F51"/></svg>