<svg width="33" height="24" viewBox="0 0 33 24" fill="none" xmlns="http://www.w3.org/2000/svg">
<path fill-rule="evenodd" clip-rule="evenodd" d="M32.5818 8.05981H22.5003L10.5156 19.8558L13.3411 22.6929C15.0369 24.3958 17.765 24.3862 19.4496 22.6717L31.5991 10.3051C32.2122 9.68114 32.5398 8.87667 32.5818 8.05981Z" fill="#4AA7FF"/>
<path d="M7.75862 16.9328L1.4198 10.8538C0.648923 10.141 0 9.12544 0 8.05981H22.7087L14.8725 15.5933L7.75862 16.9328Z" fill="#1A7BFF"/>
<path fill-rule="evenodd" clip-rule="evenodd" d="M0.00555914 8.06009H23.625L18.3879 0.526611H9.20193C7.03069 0.526611 4.9484 1.40454 3.41311 2.96725L0.987331 5.43636C0.279452 6.15689 -0.0475174 7.11764 0.00555914 8.06009Z" fill="#379FFF"/>
<path fill-rule="evenodd" clip-rule="evenodd" d="M14.7422 0.526611L22.5008 8.06009H32.5824C32.6306 7.12269 32.3032 6.16894 31.5997 5.45292L29.1575 2.96725C27.6223 1.40453 25.54 0.526611 23.3688 0.526611H14.7422Z" fill="#66CFFF"/>
<path fill-rule="evenodd" clip-rule="evenodd" d="M32.5818 8.05981H22.5003L10.5156 19.8558L13.3411 22.6929C15.0369 24.3958 17.765 24.3862 19.4496 22.6717L31.5991 10.3051C32.2122 9.68114 32.5398 8.87667 32.5818 8.05981Z" fill="#4AA7FF"/>
<path d="M7.75862 16.9328L1.4198 10.8538C0.648923 10.141 0 9.12544 0 8.05981H22.7087L14.8725 15.5933L7.75862 16.9328Z" fill="#1A7BFF"/>
<path fill-rule="evenodd" clip-rule="evenodd" d="M0.00555914 8.06009H23.625L18.3879 0.526611H9.20193C7.03069 0.526611 4.9484 1.40454 3.41311 2.96725L0.987331 5.43636C0.279452 6.15689 -0.0475174 7.11764 0.00555914 8.06009Z" fill="#379FFF"/>
<path fill-rule="evenodd" clip-rule="evenodd" d="M14.7422 0.526611L22.5008 8.06009H32.5824C32.6306 7.12269 32.3032 6.16894 31.5997 5.45292L29.1575 2.96725C27.6223 1.40453 25.54 0.526611 23.3688 0.526611H14.7422Z" fill="#66CFFF"/>
</svg>