<?xml version="1.0" encoding="UTF-8" standalone="no"?>
<svg
   version="1.0"
   width="640pt"
   height="640pt"
   viewBox="0 0 640 640"
   preserveAspectRatio="xMidYMid"
   id="svg132"
   xmlns="http://www.w3.org/2000/svg"
   xmlns:svg="http://www.w3.org/2000/svg">
  <defs
     id="defs132" />
  <g
     transform="matrix(0.1583617,0,0,-0.1583617,116.09266,865.95374)"
     fill="#000000"
     stroke="none"
     id="g132"
     style="fill:#32368c;fill-opacity:1">
    <path
       d="m 71.023448,5050.4497 131.969902,-560.0756 160.54354,-681.3412 90.52104,21.3294 91.49439,21.5587 -87.50454,397.5273 c -47.2512,217.9732 -160.42076,694.2582 -196.19904,846.0999 -27.50673,116.7376 -39.53823,170.5531 -136.69247,147.8357 -94.120566,-22.008 -80.569084,-85.8198 -54.132822,-192.9342 z"
       id="path2"
       style="fill:#32368c;fill-opacity:1" />
    <path
       d="m 345.91468,3404.2003 77.97829,-330.9372 194.6689,45.8696 194.66891,45.8696 -49.99785,212.1891 c -27.7511,117.7747 -59.92129,267.3844 -71.16488,332.5426 l -22.14038,120.1241 -200.50896,-47.2457 -201.48232,-47.475 z"
       id="path44"
       style="fill:#32368c;fill-opacity:1" />
    <path
       d="m 1709.2746,3936.061 c -6.696,-10.8242 -282.1918,-132.2451 -394.5796,-174.1377 -62.406,-22.9237 -199.8154,-67.63 -305.5072,-98.6983 -105.69184,-31.0683 -205.31423,-61.7339 -220.1997,-68.3235 l -29.25629,-11.0032 25.74846,-122.3561 25.74845,-122.3561 33.09372,7.7978 c 18.49354,4.3576 81.64349,28.484 140.21202,54.6131 299.37074,129.1013 502.31344,266.303 680.27374,457.2064 41.8427,44.7905 75.0988,82.4207 74.4107,85.3408 -1.1467,4.8667 -25.4803,-0.867 -29.9443,-8.0832 z"
       id="path50"
       style="fill:#32368c;fill-opacity:1" />
    <path
       d="m 61.849336,3401.9916 -99.337095,-27.5162 6.192393,-26.2803 c 17.486394,-69.8515 116.856706,-147.1207 199.943316,-155.2826 25.19505,-2.2824 74.49437,2.1423 108.56143,10.1694 l 61.3207,14.449 -28.66849,121.668 -28.66849,121.6681 -59.88866,-16.1663 c -33.83771,-9.0005 -105.17716,-28.8923 -159.455104,-42.7091 z"
       id="path51"
       style="fill:#32368c;fill-opacity:1" />
    <path
       d="m 534.64704,3030.5251 c 10.1528,-56.1686 21.03852,-76.2061 50.18844,-90.9127 35.39273,-19.3998 94.71079,-9.5323 131.2896,22.7166 29.1948,24.3446 32.33865,41.5236 19.03647,97.9776 l -10.09131,42.8271 -97.33445,-22.9348 -97.33445,-22.9348 z"
       id="path64"
       style="fill:#32368c;fill-opacity:1" />
  </g>
  <text
     xml:space="preserve"
     style="font-style:normal;font-variant:normal;font-weight:bold;font-stretch:normal;font-size:72px;font-family:'Nimbus Sans';-inkscape-font-specification:'Nimbus Sans Bold';text-align:start;writing-mode:lr-tb;direction:ltr;text-anchor:start;fill:#28588f;fill-opacity:1;stroke:none;stroke-width:0.75"
     x="4.3611746"
     y="503.82233"
     id="text133"><tspan
       id="tspan133"
       style="fill:#28588f;fill-opacity:1;stroke:none;stroke-width:0.75"
       x="4.3611746"
       y="503.82233">LUCKY SERVICES</tspan></text>
  <text
     xml:space="preserve"
     style="font-style:normal;font-variant:normal;font-weight:bold;font-stretch:normal;font-size:40.5961px;font-family:'Nimbus Sans';-inkscape-font-specification:'Nimbus Sans Bold';text-align:start;writing-mode:lr-tb;direction:ltr;text-anchor:start;fill:#4798cd;fill-opacity:1;stroke:none;stroke-width:0.761177"
     x="62.446808"
     y="560.61841"
     id="text134"
     transform="scale(0.98531574,1.0149031)"><tspan
       id="tspan134"
       style="font-style:normal;font-variant:normal;font-weight:bold;font-stretch:normal;font-size:40.5961px;font-family:'Nimbus Sans';-inkscape-font-specification:'Nimbus Sans Bold';fill:#4798cd;fill-opacity:1;stroke:none;stroke-width:0.761177"
       x="62.446808"
       y="560.61841">FROM MINERS TO MINERS</tspan></text>
  <text
     xml:space="preserve"
     style="font-style:normal;font-variant:normal;font-weight:bold;font-stretch:normal;font-size:508.846px;font-family:'Nimbus Sans';-inkscape-font-specification:'Nimbus Sans Bold';text-align:start;writing-mode:lr-tb;direction:ltr;text-anchor:start;fill:#3f9cda;fill-opacity:1;stroke:none;stroke-width:2.65023"
     x="286.00565"
     y="410.78873"
     id="text136"
     transform="scale(1.0347048,0.96645922)"><tspan
       id="tspan136"
       style="font-style:normal;font-variant:normal;font-weight:normal;font-stretch:normal;font-family:Sans;-inkscape-font-specification:Sans;fill:#3f9cda;fill-opacity:1;stroke-width:2.65023"
       x="286.00565"
       y="410.78873">S</tspan></text>
  <path
     style="fill:#3f9cda;fill-opacity:1;stroke:none;stroke-width:0.436321"
     d="m 380.18165,237.97358 -19.65273,3.0791 7.35535,-19.06618 z"
     id="path137" />
  <path
     style="fill:#3f9cda;fill-opacity:1;stroke:none;stroke-width:0.961895"
     d="M 374.70794,199.56516 522.1937,268.30549 417.43888,247.23575 Z"
     id="path137-8" />
  <path
     style="fill:#3f9cda;fill-opacity:1;stroke:none;stroke-width:0.436321"
     d="m 396.91008,314.20668 17.40535,9.63142 -17.50922,10.53791 z"
     id="path137-8-0" />
  <path
     style="fill:#3f9cda;fill-opacity:1;stroke:none;stroke-width:0.436321"
     d="m 410.68383,261.50915 -14.18225,15.37832 -4.28396,-20.17838 z"
     id="path137-8-0-1" />
  <path
     style="fill:#3f9cda;fill-opacity:1;stroke:none;stroke-width:0.436321"
     d="m 358.26839,321.60347 2.30347,19.75866 -18.76203,-8.09981 z"
     id="path137-8-0-4" />
  <path
     style="fill:#3f9cda;fill-opacity:1;stroke:none;stroke-width:0.333711"
     d="m 367.95861,345.90651 5.36638,13.39 -16.47492,-2.73192 z"
     id="path137-8-0-4-4" />
  <path
     style="fill:#3f9cda;fill-opacity:1;stroke:none;stroke-width:0.254507"
     d="m 388.39523,360.89519 -5.10591,-9.75246 12.91439,1.20725 z"
     id="path137-8-0-4-4-6" />
  <path
     style="fill:#3f9cda;fill-opacity:1;stroke:none;stroke-width:1.25626"
     d="m 509.67777,285.22899 -78.67917,-61.40202 88.21176,11.42341 z"
     id="path137-8-8" />
  <path
     style="fill:#3f9cda;fill-opacity:1;stroke:none;stroke-width:1.88477"
     d="M 329.65268,124.69462 463.02053,232.15722 347.37076,214.40115 Z"
     id="path137-8-8-0" />
</svg>
