<?xml version="1.0" encoding="UTF-8" standalone="no"?>
<svg
   width="150"
   height="150"
   fill="none"
   viewBox="0 0 150 150"
   version="1.1"
   id="svg155"
   sodipodi:docname="cleaned_up_logo.svg"
   inkscape:version="1.4.3 (1:1.4.3+202512261035+0d15f75042)"
   xmlns:inkscape="http://www.inkscape.org/namespaces/inkscape"
   xmlns:sodipodi="http://sodipodi.sourceforge.net/DTD/sodipodi-0.dtd"
   xmlns="http://www.w3.org/2000/svg"
   xmlns:svg="http://www.w3.org/2000/svg">
  <sodipodi:namedview
     id="namedview155"
     pagecolor="#ffffff"
     bordercolor="#000000"
     borderopacity="0.25"
     inkscape:showpageshadow="2"
     inkscape:pageopacity="0.0"
     inkscape:pagecheckerboard="0"
     inkscape:deskcolor="#d1d1d1"
     inkscape:zoom="8.08"
     inkscape:cx="67.326733"
     inkscape:cy="96.658416"
     inkscape:window-width="1920"
     inkscape:window-height="1010"
     inkscape:window-x="1920"
     inkscape:window-y="0"
     inkscape:window-maximized="1"
     inkscape:current-layer="svg155" />
  <!-- SVG created with Arrow, by QuiverAI (https://quiver.ai) -->
  <path
     d="m 52.364931,25.628412 c -3.65,0 -7.18,1.29 -9.58,4.09 -2.1,2.46 -0.39,3.87 1.07,5.46 l 8.79,-2.08 1.7,-4.12 c -0.2,-2.08 -0.7,-3.35 -1.98,-3.35 z"
     fill="url(#paint27_linear_14_15516)"
     stroke="#6d5707"
     stroke-miterlimit="10"
     stroke-width="0.75"
     id="path42"
     style="fill:url(#paint27_linear_14_15516)" />
  <path
     d="m 44.012286,34.718518 c 9.17,-7.24 20.77,-10.54 34.02,-10.54 6.26,0 11.58,0 17.98,2.15 l 0.17,0.29 c -14.4,4.11 -24.261881,6.248366 -36.431881,12.178366 l -1.958119,-1.088366 -12.01,4.18 z"
     fill="url(#paint28_linear_14_15516)"
     stroke="#121118"
     stroke-miterlimit="10"
     stroke-width="0.5"
     id="path43"
     style="fill:url(#paint28_linear_14_15516)"
     sodipodi:nodetypes="cscccccc" />
  <path
     d="m 43.629799,34.880449 c -14.62,7.31 -27.847513,17.798069 -35.5475121,34.728069 10.9199991,-8.23 24.0599991,-17 40.2599991,-25.23 z"
     fill="url(#paint29_linear_14_15516)"
     stroke="#121118"
     stroke-miterlimit="10"
     stroke-width="0.5"
     id="path44"
     style="fill:url(#paint29_linear_14_15516)"
     sodipodi:nodetypes="cccc" />
  <path
     d="m 44.164614,34.944867 c 4.277593,-3.627193 7.645178,-4.880001 11.008253,-6.631587 1.373986,3.149561 3.101568,6.651098 4.289419,9.995238 l -11.202434,5.711217 z"
     fill="url(#paint30_linear_14_15516)"
     id="path45"
     style="fill:url(#paint30_linear_14_15516)"
     sodipodi:nodetypes="ccccc" />
  <path
     d="m 48.35887,44.319558 2.976683,6.082722 c 2.62,-3.48 4.296733,-6.523762 8.126733,-8.293762 l 2.421881,1.607921 -2.296584,-5.148168 z"
     fill="url(#paint31_linear_14_15516)"
     stroke="#6d5707"
     stroke-miterlimit="10"
     stroke-width="0.75"
     id="path46"
     style="fill:url(#paint31_linear_14_15516)"
     sodipodi:nodetypes="cccccc" />
  <path
     d="m 51.124931,27.038412 c -1.48,0 -4.68,1.3 -5.48,2.99 -0.67,1.45 0.21,2.15 1.03,2.36"
     opacity="0.5"
     stroke="#ffffff"
     stroke-miterlimit="10"
     stroke-width="0.75"
     id="path47" />
  <path
     d="M 9.9904437,66.5285 C 17.645801,53.686721 25.988998,44.956819 42.776433,36.129315"
     opacity="0.5"
     stroke="#ffffff"
     stroke-miterlimit="10"
     stroke-width="0.75"
     id="path48"
     sodipodi:nodetypes="cc" />
  <path
     d="m 55.703474,28.882181 c 7.16,-2.91 10.412483,-3.421877 20.31594,-4.147426 5.912575,-0.433168 12.876535,0.591287 18.206535,1.491287"
     opacity="0.5"
     stroke="#ffffff"
     stroke-miterlimit="10"
     stroke-width="0.75"
     id="path49"
     sodipodi:nodetypes="csc" />
  <path
     d="m 5.7399867,112.20383 -1.15,0.72 v 2.72 l 1.15,2.23 2.8599999,1.42 5.3300004,-0.76 4.66,-1.73 1.44,-2.23 v -3.85 l -2.34,-1.42 -5.69,0.43 -4.4000003,0.99 z"
     fill="url(#paint5_linear_14_15516)"
     stroke="#967200"
     stroke-miterlimit="10"
     stroke-width="0.75"
     id="path6"
     style="fill:url(#paint5_linear_14_15516)" />
  <path
     d="m 17.929987,102.254 -8.2300004,3.23 v 4.29999 l 2.0200004,1.14 6.59,0.28 8.02,-0.87 4.1,-1.66 0.4,-3.46999 -2.83,-2.73 -5.7,-0.69 z"
     fill="url(#paint6_linear_14_15516)"
     stroke="#967200"
     stroke-miterlimit="10"
     stroke-width="0.75"
     id="path7"
     style="fill:url(#paint6_linear_14_15516)" />
  <path
     d="m 21.949934,93.203835 -4.8,3.08 0.69,3.55 4.11,1.040005 5.46,-0.48 4.66,-2.220005 0.39,-3.47 -3.3,-2.5 -4.44,-0.08 z"
     fill="url(#paint7_linear_14_15516)"
     stroke="#967200"
     stroke-miterlimit="10"
     stroke-width="0.75"
     id="path8"
     style="fill:url(#paint7_linear_14_15516)" />
  <path
     d="m 22.887459,88.846409 0.62,2.53 3.03,0.55 4.45,-1.29 2.27,-2.72 -2.55,-1.42 -4.44,0.43 z"
     fill="url(#paint8_linear_14_15516)"
     stroke="#967200"
     stroke-miterlimit="10"
     stroke-width="0.75"
     id="path9"
     style="fill:url(#paint8_linear_14_15516)" />
  <path
     d="m 27.537459,84.546409 0.56,2.22 3.73,1.04 5.81,-0.76 4.45,-2.01 1.15,-2.98 -2.02,-4.15 -4.073416,-1.543366 -4.495247,0.518614 -4.262575,2.881732 z"
     fill="url(#paint9_linear_14_15516)"
     stroke="#967200"
     stroke-miterlimit="10"
     stroke-width="0.75"
     id="path10"
     style="fill:url(#paint9_linear_14_15516)"
     sodipodi:nodetypes="ccccccccccc" />
  <path
     d="m 27.17736,92.884033 0.43,3.48 3.72,1.73 6.87,-0.21 5.7,-1.42 1.6,-3.02 -2.86,-3.09 -5.33,-1.21 -4.91,0.8 z"
     fill="url(#paint10_linear_14_15516)"
     stroke="#967200"
     stroke-miterlimit="10"
     stroke-width="0.75"
     id="path11"
     style="fill:url(#paint10_linear_14_15516)" />
  <path
     d="m 30.339934,100.80384 0.63,4.02 4.73,1.87999 6.59,-0.20999 5.8,-1.67 2.38,-3.15 -2.86,-3.960005 -6.33,-0.55 -5.34,0.55 z"
     fill="url(#paint11_linear_14_15516)"
     stroke="#967200"
     stroke-miterlimit="10"
     stroke-width="0.75"
     id="path12"
     style="fill:url(#paint11_linear_14_15516)" />
  <path
     d="m 106.2921,109.87632 2.09,5.38 7.01,1.94 6.79,-0.79 6.52,-1.66 0.83,-3.05 -4.17,-4.32 -7.57,-0.94 -5.83,1.01 z"
     fill="url(#paint12_linear_14_15516)"
     stroke="#967200"
     stroke-miterlimit="10"
     stroke-width="0.75"
     id="path13"
     style="fill:url(#paint12_linear_14_15516)" />
  <path
     d="m 115.18241,117.09097 -1.32,4.11 3.06,2.65 7.22,0.79 9.05,-1.14 6.79,-1.49 2.38,-2.59 -0.24,-1.92 -5.04,-1.49 -8.92,-0.21 -8.02,0.3 z"
     fill="url(#paint13_linear_14_15516)"
     stroke="#967200"
     stroke-miterlimit="10"
     stroke-width="0.75"
     id="path14"
     style="fill:url(#paint13_linear_14_15516)" />
  <path
     d="m 89.03509,120.92595 -0.34,4.07 2.86,2.23 6.71,0.9 8.47,-0.69 5.83,-1.49 3.1,-2.22 v -3.77 l -3.73,-2.72 -7.45,-0.28 -7.45,0.56 z"
     fill="url(#paint14_linear_14_15516)"
     stroke="#967200"
     stroke-miterlimit="10"
     stroke-width="0.75"
     id="path15"
     style="fill:url(#paint14_linear_14_15516)" />
  <path
     d="m 58.887795,124.02342 0.7,3.62 3.81,2.46 7.16,1.35 8.73,-0.87 7.04,-2.94 3.39,-3.2 v -3.07 l -3.1,-2.46 -7.88,-0.76 -9.19,0.76 -7.63,1.94 z"
     fill="url(#paint15_linear_14_15516)"
     stroke="#967200"
     stroke-miterlimit="10"
     stroke-width="0.75"
     id="path16"
     style="fill:url(#paint15_linear_14_15516)" />
  <path
     d="m 34.45544,120.39856 0.54,3.01 4.06,1.94 7.45,1.01 8.3,-1.23 7.45,-2.52 6.33,-3.48 -0.69,-2.87 -6.4,-1.56 -10.39,-0.07 -8.73,1 z"
     fill="url(#paint16_linear_14_15516)"
     stroke="#967200"
     stroke-miterlimit="10"
     stroke-width="0.75"
     id="path17"
     style="fill:url(#paint16_linear_14_15516)" />
  <path
     d="m 15.320251,117.85367 0.36,3.15 2.83,1.42 5.83,-0.29 6.19,-2.83 4.86,-3.37 0.31,-2.68 -3.12,-1.6 -6.33,0.87 -6.23,2.49 z"
     fill="url(#paint17_linear_14_15516)"
     stroke="#967200"
     stroke-miterlimit="10"
     stroke-width="0.75"
     id="path18"
     style="fill:url(#paint17_linear_14_15516)" />
  <path
     d="m 32.704733,108.10836 -0.36,5.02 3.21,3.15 6.86,1.42 8.92,-0.56 5.83,-2.23 2.02,-3.45 -2.02,-4 -7.45,-2.51 -8.03,-0.44 -6.86,1.8 z"
     fill="url(#paint18_linear_14_15516)"
     stroke="#967200"
     stroke-miterlimit="10"
     stroke-width="0.75"
     id="path19"
     style="fill:url(#paint18_linear_14_15516)" />
  <path
     d="m 105.72498,118.40383 3.1,2.22 -4.44,1.76 -3.19999,0.4 -4.320007,-0.55 2.020003,-2.03 2.760004,-1.38 z"
     fill="#fffd71"
     stroke="#967200"
     stroke-miterlimit="10"
     stroke-width="0.25"
     id="path20" />
  <path
     d="m 65.202957,124.2012 1.15,2 4.54,1 5.03,-1 3.53,-2.5 3.1,-0.3 -1.62,-1.2 -4.44,-0.45 -3.1,1.95 -3.3,1.72 -2.45,-0.72 1.88,-1.67 3.1,-1.28 -2.1,0.57 -3.38,0.71 z"
     fill="#b59a00"
     stroke="#967200"
     stroke-miterlimit="10"
     stroke-width="0.25"
     id="path21" />
  <path
     d="m 19.34004,106.25432 1.7,1.42 3.81,-0.41 1.7,-1.42 -2.59,-0.56 -2.92,0.37 z"
     fill="#b59a00"
     stroke="#967200"
     stroke-miterlimit="10"
     stroke-width="0.25"
     id="path22" />
  <path
     d="m 31.894884,93.664231 3.1,-1.58 2.86,-0.43 1.7,1 -2.59,1.29 -2.62,1.01 z"
     fill="#b59a00"
     stroke="#967200"
     stroke-miterlimit="10"
     stroke-width="0.25"
     id="path23" />
  <path
     d="m 33.339934,101.00384 1.95,1.29 3.06,-0.28 2.62,-1.66 -2.03,-0.840005 -3,0.490005 z"
     fill="#b59a00"
     stroke="#967200"
     stroke-miterlimit="10"
     stroke-width="0.25"
     id="path24" />
  <path
     d="m 38.317261,113.30383 1.77,1.7 4.53,0.26 3.6,-1.01 -3.71,-0.95 -1.99,0.53 -1.59,-1.33 3.93,-0.8 2.55,0.8 3.1,0.8 2.79,-1.12 -2.79,-1.48 -4.97,-0.57 -4.44,1.07 z"
     fill="#b59a00"
     stroke="#967200"
     stroke-miterlimit="10"
     stroke-width="0.25"
     id="path25" />
  <path
     d="m 21.610093,117.20383 2.42,0.7 3.73,-1.07 2.96,-2.23 -2.38,-0.45 -3.45,1.3 z"
     fill="#b59a00"
     stroke="#967200"
     stroke-miterlimit="10"
     stroke-width="0.25"
     id="path26" />
  <path
     d="m 45.281599,120.65114 2.22,1.21 3.8,-0.59 -2.28,-1.21 -1.87,-0.48 z"
     fill="#b59a00"
     stroke="#967200"
     stroke-miterlimit="10"
     stroke-width="0.25"
     id="path27" />
  <path
     d="m 117.99231,120.17611 2.96,0.59 3.2,-0.59 -0.92,-1.21 -4.11,0.3 z"
     fill="#b59a00"
     stroke="#967200"
     stroke-miterlimit="10"
     stroke-width="0.25"
     id="path28" />
  <path
     d="m 116.29231,114.97611 2.93,-0.44 3.38,0.23 1.44,-1 -3.2,-0.61 -3.65,0.4 -2.1,0.98 z"
     fill="#b59a00"
     stroke="#967200"
     stroke-miterlimit="10"
     stroke-width="0.25"
     id="path29" />
  <path
     d="m 117.35568,110.08403 1.94,1.39 v -1.9 l -1.2,-0.9 z"
     fill="#b59a00"
     stroke="#967200"
     stroke-miterlimit="10"
     stroke-width="0.25"
     id="path30" />
  <path
     d="m 83.42231,34.186112 c -22.349927,0.05701 -41.67,16.78 -41.67,40.51 0,21.04 16.69,44.589998 43.15,44.589998 22.7,0 42.33051,-16.02198 42.88465,-39.355394 0.5794,-24.397011 -15.01968,-45.819451 -44.36465,-45.744604 z"
     fill="url(#paint19_linear_14_15516)"
     stroke="url(#paint20_linear_14_15516)"
     stroke-miterlimit="10"
     stroke-width="0.75"
     id="path36"
     style="fill:url(#paint19_linear_14_15516);stroke:url(#paint20_linear_14_15516)"
     sodipodi:nodetypes="sssss" />
  <path
     d="m 84.552257,37.478541 c -20.089997,0.01053 -38.05,15.577624 -38.05,37.497624 0,19.18 15.105664,41.941415 39.472446,40.877445 22.064607,-0.96346 35.720107,-14.9778 37.752257,-35.305022 C 125.74723,60.3402 111.14288,37.464609 84.552257,37.478541 Z"
     fill="url(#paint21_linear_14_15516)"
     stroke="url(#paint22_linear_14_15516)"
     stroke-miterlimit="10"
     stroke-width="1.5"
     id="path37"
     style="fill:url(#paint21_linear_14_15516);stroke:url(#paint22_linear_14_15516)"
     sodipodi:nodetypes="sssss" />
  <path
     d="m 85.237178,43.186059 c -17.31,0 -32.94,13.4 -32.94,31.84 0,16.19 13.57,35.130001 34.35,35.130001 17.890002,0 32.169892,-12.720001 32.169892,-30.430001 0,-16.39 -12.46989,-36.54 -33.579892,-36.54 z"
     stroke="url(#paint23_linear_14_15516)"
     stroke-miterlimit="10"
     stroke-width="2"
     id="path38"
     style="stroke:url(#paint23_linear_14_15516)"
     sodipodi:nodetypes="sssss" />
  <path
     d="m 92.714532,11.967127 8.364718,25.453984 15.19922,-13.434861 -9.88232,15.366083 16.51385,-4.369331 -15.48596,9.392953 14.58395,4.382332 -15.832,-1.978519 1.3836,4.511931 C 105.38006,49.378607 102.90363,47.39988 99.348328,45.508668 96.176222,44.001758 93.443572,43.03181 89.860974,42.50108 L 97.113164,38.895189 89.624711,20.97038 98.689359,36.083504 96.860737,15.05738 Z"
     fill="url(#paint24_radial_14_15516)"
     id="path39"
     style="fill:url(#paint24_radial_14_15516);stroke-width:1.30737"
     sodipodi:nodetypes="cccccccccccccccc" />
  <path
     d="m 96.163379,71.303793 c 2.447097,-2.234592 3.689157,-5.2838 2.737747,-8.672785 -1.648747,-5.872955 -7.010305,-6.102331 -12.623307,-4.526556 l -0.48139,0.135144 -2.332581,-8.308789 -4.71762,1.324409 2.119054,7.548192 -3.456379,0.970332 -2.119054,-7.548192 -4.842782,1.359546 2.119054,7.548193 -10.070675,2.827207 1.319003,4.698365 6.749085,-1.894716 6.511226,23.193362 -6.277323,1.762275 1.743354,6.209928 9.598913,-2.694766 2.137975,7.615588 5.304915,-1.48928 -2.100133,-7.480803 3.485262,-0.978441 2.081214,7.413404 4.977572,-1.397387 -2.119055,-7.548192 0.866505,-0.243259 C 104.41148,88.400791 108.73576,83.603431 106.97619,77.335736 105.74368,72.94546 101.5744,70.636423 96.163379,71.303793 Z m -17.502868,-6.812768 5.930723,-1.664971 c 5.324172,-1.494689 6.319462,0.718678 6.962747,3.010094 0.783833,2.792061 -1.114817,4.94539 -5.062214,6.053569 l -5.333799,1.497392 z m 14.30112,20.788335 -7.519309,2.110946 -2.427182,-8.645762 6.951269,-1.951475 c 4.602087,-1.291974 7.02665,-0.425035 7.94022,2.82916 0.543277,1.935187 -0.11184,4.300288 -4.944998,5.657131 z"
     fill="url(#paint25_linear_14_15516)"
     id="path40"
     style="fill:url(#paint25_linear_14_15516)" />
  <path
     d="m 96.826655,107.58802 -0.790025,3.76342 3.959406,0.0835 -3.746931,1.63837 0.989996,4.39 -2.410763,-3.75129 -4.079233,2.20129 2.859406,-3.16512 -2.859406,-3.63488 3.834356,2.12052 z"
     fill="url(#paint26_radial_14_15516)"
     id="path41"
     style="fill:url(#paint26_radial_14_15516)"
     sodipodi:nodetypes="ccccccccccc" />
  <path
     d="m 52.373403,72.78456 -0.350867,2.212648 2.061881,0.368218 -2.092054,0.720421 0.36,2.39 -1.37,-1.94 -2.17,0.73 1.45,-1.82 -1.25,-2.01 2.34,1 z"
     fill="url(#paint32_radial_14_15516)"
     id="path50"
     style="fill:url(#paint32_radial_14_15516)"
     sodipodi:nodetypes="ccccccccccc" />
  <path
     d="m 60.311729,67.035425 0.56,0.8 0.59,-0.8 -0.59,-0.8 z"
     fill="#feff98"
     id="path51" />
  <path
     d="m 66.641729,72.645425 0.56,0.73 0.7,-0.73 -0.7,-0.79 z"
     fill="#feff98"
     id="path52" />
  <path
     d="m 65.281729,77.025425 0.5,0.56 0.49,-0.56 -0.49,-0.56 z"
     fill="#feff98"
     id="path53" />
  <path
     d="m 57.501729,79.245425 0.43,0.63 0.58,-0.63 -0.58,-0.69 z"
     fill="#feff98"
     id="path54" />
  <path
     d="m 60.751729,87.525425 0.5,0.56 0.61,-0.56 -0.61,-0.67 z"
     fill="#feff98"
     id="path55" />
  <path
     d="m 72.45231,98.976112 0.63,0.7 0.77,-0.7 -0.77,-0.83 z"
     fill="#feff98"
     id="path56" />
  <path
     d="m 91.22231,67.636112 0.92,0.86 0.98,-0.86 -0.98,-1.05 z"
     fill="#feff98"
     id="path57" />
  <path
     d="m 91.22231,81.996112 0.99,1.04 1.19,-1.04 -1.19,-1.27 z"
     fill="#feff98"
     id="path58" />
  <path
     d="m 99.317286,99.125848 1.150004,1.150002 1.36999,-1.150002 -1.36999,-1.45 z"
     fill="#feff98"
     id="path59" />
  <path
     d="m 90.222099,106.72606 0.73,0.73 0.91,-0.73 -0.91,-1.01 z"
     fill="#feff98"
     id="path60" />
  <path
     d="m 109.69231,92.776112 0.73,0.73 0.92,-0.73 -0.92,-1.08 z"
     fill="#feff98"
     id="path61" />
  <path
     d="m 109.94173,70.355425 0.92,0.79 0.98,-0.79 -0.98,-1.07 z"
     fill="#feff98"
     id="path62" />
  <path
     d="m 112.49231,84.836112 0.43,0.49 0.56,-0.49 -0.56,-0.63 z"
     fill="#feff98"
     id="path63" />
  <path
     d="m 111.81707,103.30098 0.74,0.79 0.96,-0.79 -0.96,-1.07 z"
     fill="#feff98"
     id="path64" />
  <path
     d="m 113.09231,67.496112 0.57,0.49 0.6,-0.49 -0.6,-0.7 z"
     fill="#feff98"
     id="path65" />
  <path
     d="m 92.751729,52.385425 1.3,1.3 1.560006,-1.3 -1.560006,-1.73 z"
     fill="#feff98"
     id="path66" />
  <path
     d="m 101.84173,62.465425 0.73,0.69 0.87,-0.69 -0.87,-1.01 z"
     fill="#feff98"
     id="path67" />
  <defs
     id="defs155">
    <radialGradient
       id="paint0_radial_14_15516"
       cx="0"
       cy="0"
       r="1"
       gradientTransform="matrix(108.4,0,0,21.61,100.5,141.4)"
       gradientUnits="userSpaceOnUse">
      <stop
         stop-color="#206A3A"
         offset="0"
         id="stop67" />
      <stop
         stop-color="#206A3A"
         stop-opacity=".21"
         offset="1"
         id="stop68" />
    </radialGradient>
    <linearGradient
       id="paint1_linear_14_15516"
       x1="137.8"
       x2="137.8"
       y1="124.4"
       y2="136.7"
       gradientUnits="userSpaceOnUse"
       gradientTransform="translate(-23.762376,-23.762376)">
      <stop
         stop-color="#948200"
         offset="0"
         id="stop69" />
      <stop
         stop-color="#ff0"
         offset=".5208"
         id="stop70" />
      <stop
         stop-color="#948200"
         offset="1"
         id="stop71" />
    </linearGradient>
    <linearGradient
       id="paint2_linear_14_15516"
       x1="138.39999"
       x2="138.39999"
       y1="124.9"
       y2="132.60001"
       gradientUnits="userSpaceOnUse"
       gradientTransform="translate(8.1683168,-16.336634)">
      <stop
         stop-color="#948200"
         offset="0"
         id="stop72" />
      <stop
         stop-color="#ff0"
         offset=".5208"
         id="stop73" />
      <stop
         stop-color="#948200"
         offset="1"
         id="stop74" />
    </linearGradient>
    <linearGradient
       id="paint3_linear_14_15516"
       x1="132.89999"
       x2="132.89999"
       y1="107.9"
       y2="128"
       gradientUnits="userSpaceOnUse"
       gradientTransform="translate(26.485149,-28.712871)">
      <stop
         stop-color="#948200"
         offset="0"
         id="stop75" />
      <stop
         stop-color="#ff0"
         offset=".5208"
         id="stop76" />
      <stop
         stop-color="#948200"
         offset="1"
         id="stop77" />
    </linearGradient>
    <linearGradient
       id="paint4_linear_14_15516"
       x1="148.60001"
       x2="148.60001"
       y1="126"
       y2="134.39999"
       gradientUnits="userSpaceOnUse">
      <stop
         stop-color="#1A1A1A"
         offset="0"
         id="stop78" />
      <stop
         stop-color="#000003"
         offset="1"
         id="stop79" />
    </linearGradient>
    <linearGradient
       id="paint5_linear_14_15516"
       x1="11.74"
       x2="11.74"
       y1="122.4"
       y2="132.3"
       gradientUnits="userSpaceOnUse"
       gradientTransform="translate(0.57998655,-12.896165)">
      <stop
         stop-color="#948200"
         offset="0"
         id="stop80" />
      <stop
         stop-color="#ff0"
         offset=".5208"
         id="stop81" />
      <stop
         stop-color="#948200"
         offset="1"
         id="stop82" />
    </linearGradient>
    <linearGradient
       id="paint6_linear_14_15516"
       x1="19.690001"
       x2="19.690001"
       y1="113.8"
       y2="123.1"
       gradientUnits="userSpaceOnUse"
       gradientTransform="translate(0.57998655,-11.846006)">
      <stop
         stop-color="#948200"
         offset="0"
         id="stop83" />
      <stop
         stop-color="#ff0"
         offset=".5208"
         id="stop84" />
      <stop
         stop-color="#948200"
         offset="1"
         id="stop85" />
    </linearGradient>
    <linearGradient
       id="paint7_linear_14_15516"
       x1="24.58"
       x2="24.58"
       y1="105"
       y2="113.9"
       gradientUnits="userSpaceOnUse"
       gradientTransform="translate(0.22993369,-12.896165)">
      <stop
         stop-color="#948200"
         offset="0"
         id="stop86" />
      <stop
         stop-color="#ff0"
         offset=".5208"
         id="stop87" />
      <stop
         stop-color="#948200"
         offset="1"
         id="stop88" />
    </linearGradient>
    <linearGradient
       id="paint8_linear_14_15516"
       x1="27.59"
       x2="27.59"
       y1="98.550003"
       y2="104.3"
       gradientUnits="userSpaceOnUse"
       gradientTransform="translate(0.47745849,-12.153591)">
      <stop
         stop-color="#948200"
         offset="0"
         id="stop89" />
      <stop
         stop-color="#ff0"
         offset=".5208"
         id="stop90" />
      <stop
         stop-color="#948200"
         offset="1"
         id="stop91" />
    </linearGradient>
    <linearGradient
       id="paint9_linear_14_15516"
       x1="34.91"
       x2="34.91"
       y1="90.419998"
       y2="99.989998"
       gradientUnits="userSpaceOnUse"
       gradientTransform="translate(0.47745849,-12.153591)">
      <stop
         stop-color="#948200"
         offset="0"
         id="stop92" />
      <stop
         stop-color="#ff0"
         offset=".5208"
         id="stop93" />
      <stop
         stop-color="#948200"
         offset="1"
         id="stop94" />
    </linearGradient>
    <linearGradient
       id="paint10_linear_14_15516"
       x1="36.849998"
       x2="36.849998"
       y1="100"
       y2="109.2"
       gradientUnits="userSpaceOnUse"
       gradientTransform="translate(-0.51264051,-10.915967)">
      <stop
         stop-color="#948200"
         offset="0"
         id="stop95" />
      <stop
         stop-color="#ff0"
         offset=".5208"
         id="stop96" />
      <stop
         stop-color="#948200"
         offset="1"
         id="stop97" />
    </linearGradient>
    <linearGradient
       id="paint11_linear_14_15516"
       x1="39.189999"
       x2="39.189999"
       y1="110"
       y2="119.8"
       gradientUnits="userSpaceOnUse"
       gradientTransform="translate(0.22993369,-12.896165)">
      <stop
         stop-color="#948200"
         offset="0"
         id="stop98" />
      <stop
         stop-color="#ff0"
         offset=".5208"
         id="stop99" />
      <stop
         stop-color="#948200"
         offset="1"
         id="stop100" />
    </linearGradient>
    <linearGradient
       id="paint12_linear_14_15516"
       x1="120.4"
       x2="120.4"
       y1="120"
       y2="130.89999"
       gradientUnits="userSpaceOnUse"
       gradientTransform="translate(-2.4079014,-13.723677)">
      <stop
         stop-color="#948200"
         offset="0"
         id="stop101" />
      <stop
         stop-color="#ff0"
         offset=".5208"
         id="stop102" />
      <stop
         stop-color="#948200"
         offset="1"
         id="stop103" />
    </linearGradient>
    <linearGradient
       id="paint13_linear_14_15516"
       x1="127.9"
       x2="127.9"
       y1="132.2"
       y2="141.39999"
       gradientUnits="userSpaceOnUse"
       gradientTransform="translate(-0.01759101,-16.609037)">
      <stop
         stop-color="#948200"
         offset="0"
         id="stop104" />
      <stop
         stop-color="#ff0"
         offset=".5208"
         id="stop105" />
      <stop
         stop-color="#948200"
         offset="1"
         id="stop106" />
    </linearGradient>
    <linearGradient
       id="paint14_linear_14_15516"
       x1="100.7"
       x2="100.7"
       y1="133.10001"
       y2="144.5"
       gradientUnits="userSpaceOnUse"
       gradientTransform="translate(1.425089,-16.174047)">
      <stop
         stop-color="#948200"
         offset="0"
         id="stop107" />
      <stop
         stop-color="#ff0"
         offset=".5208"
         id="stop108" />
      <stop
         stop-color="#948200"
         offset="1"
         id="stop109" />
    </linearGradient>
    <linearGradient
       id="paint15_linear_14_15516"
       x1="69.93"
       x2="69.93"
       y1="134.10001"
       y2="148"
       gradientUnits="userSpaceOnUse"
       gradientTransform="translate(4.3777949,-16.276574)">
      <stop
         stop-color="#948200"
         offset="0"
         id="stop110" />
      <stop
         stop-color="#ff0"
         offset=".5208"
         id="stop111" />
      <stop
         stop-color="#948200"
         offset="1"
         id="stop112" />
    </linearGradient>
    <linearGradient
       id="paint16_linear_14_15516"
       x1="46.779999"
       x2="46.779999"
       y1="128.89999"
       y2="140.89999"
       gradientUnits="userSpaceOnUse"
       gradientTransform="translate(4.7454389,-14.501432)">
      <stop
         stop-color="#948200"
         offset="0"
         id="stop113" />
      <stop
         stop-color="#ff0"
         offset=".5208"
         id="stop114" />
      <stop
         stop-color="#948200"
         offset="1"
         id="stop115" />
    </linearGradient>
    <linearGradient
       id="paint17_linear_14_15516"
       x1="23.18"
       x2="23.18"
       y1="125.5"
       y2="136.5"
       gradientUnits="userSpaceOnUse"
       gradientTransform="translate(2.3302509,-13.946324)">
      <stop
         stop-color="#948200"
         offset="0"
         id="stop116" />
      <stop
         stop-color="#ff0"
         offset=".5208"
         id="stop117" />
      <stop
         stop-color="#948200"
         offset="1"
         id="stop118" />
    </linearGradient>
    <linearGradient
       id="paint18_linear_14_15516"
       x1="47.240002"
       x2="47.240002"
       y1="120.6"
       y2="134"
       gradientUnits="userSpaceOnUse"
       gradientTransform="translate(-1.6052677,-16.191638)">
      <stop
         stop-color="#948200"
         offset="0"
         id="stop119" />
      <stop
         stop-color="#ff0"
         offset=".5208"
         id="stop120" />
      <stop
         stop-color="#948200"
         offset="1"
         id="stop121" />
    </linearGradient>
    <linearGradient
       id="paint19_linear_14_15516"
       x1="86.919998"
       x2="86.919998"
       y1="49.310001"
       y2="134.39999"
       gradientUnits="userSpaceOnUse"
       gradientTransform="translate(-1.00769,-15.123888)">
      <stop
         stop-color="#B3FF3A"
         offset="0"
         id="stop122" />
      <stop
         stop-color="#006400"
         offset="1"
         id="stop123" />
    </linearGradient>
    <linearGradient
       id="paint20_linear_14_15516"
       x1="86.919998"
       x2="86.919998"
       y1="49.310001"
       y2="134.39999"
       gradientUnits="userSpaceOnUse"
       gradientTransform="translate(-1.00769,-15.123888)">
      <stop
         stop-color="#090"
         offset="0"
         id="stop124" />
      <stop
         stop-color="#004D04"
         offset="1"
         id="stop125" />
    </linearGradient>
    <linearGradient
       id="paint21_linear_14_15516"
       x1="87.889999"
       x2="88.065025"
       y1="53.737526"
       y2="128.89969"
       gradientUnits="userSpaceOnUse"
       gradientTransform="translate(-1.3577429,-14.773835)">
      <stop
         stop-color="#52F60B"
         offset="0"
         id="stop126" />
      <stop
         stop-color="#006400"
         offset="1"
         id="stop127" />
    </linearGradient>
    <linearGradient
       id="paint22_linear_14_15516"
       x1="87.889999"
       x2="87.889999"
       y1="57.93"
       y2="126.4"
       gradientUnits="userSpaceOnUse"
       gradientTransform="translate(-1.3577429,-14.773835)">
      <stop
         stop-color="#006400"
         offset="0"
         id="stop128" />
      <stop
         stop-color="#D7FFB6"
         offset="1"
         id="stop129" />
    </linearGradient>
    <radialGradient
       id="paint23_linear_14_15516"
       cx="0"
       cy="0"
       r="1"
       gradientTransform="matrix(31.21,0,0,31.05,85.907178,76.676059)"
       gradientUnits="userSpaceOnUse">
      <stop
         stop-color="#090"
         offset="0"
         id="stop130" />
      <stop
         stop-color="#006400"
         offset="1"
         id="stop131" />
    </radialGradient>
    <radialGradient
       id="paint24_radial_14_15516"
       cx="0"
       cy="0"
       r="1"
       gradientTransform="matrix(19.684938,5.1309765,-5.1012985,19.571079,102.6632,44.810321)"
       gradientUnits="userSpaceOnUse">
      <stop
         stop-color="#FEFFFD"
         offset="0"
         id="stop132" />
      <stop
         stop-color="#F0FF00"
         offset=".4844"
         id="stop133" />
      <stop
         stop-color="#FEFFFD"
         stop-opacity=".25"
         offset="1"
         id="stop134" />
    </radialGradient>
    <linearGradient
       id="paint25_linear_14_15516"
       x1="89.269997"
       x2="89.269997"
       y1="65.809998"
       y2="117"
       gradientUnits="userSpaceOnUse"
       gradientTransform="rotate(-15.681375,30.900987,94.855414)">
      <stop
         stop-color="#FEFFFD"
         offset="0"
         id="stop135" />
      <stop
         stop-color="#C7E9A5"
         offset="1"
         id="stop136" />
    </linearGradient>
    <radialGradient
       id="paint26_radial_14_15516"
       cx="0"
       cy="0"
       r="1"
       gradientTransform="matrix(5.356,0,0,5.318,95.069105,112.43332)"
       gradientUnits="userSpaceOnUse">
      <stop
         stop-color="#FEFFFD"
         offset="0"
         id="stop137" />
      <stop
         stop-color="#F0FF00"
         offset=".4844"
         id="stop138" />
      <stop
         stop-color="#FEFFFD"
         stop-opacity=".25"
         offset="1"
         id="stop139" />
    </radialGradient>
    <linearGradient
       id="paint27_linear_14_15516"
       x1="48.669998"
       x2="48.669998"
       y1="42.380001"
       y2="51.950001"
       gradientUnits="userSpaceOnUse"
       gradientTransform="translate(-0.36506771,-17.031588)">
      <stop
         stop-color="#948200"
         offset="0"
         id="stop140" />
      <stop
         stop-color="#ff0"
         offset=".5208"
         id="stop141" />
      <stop
         stop-color="#948200"
         offset="1"
         id="stop142" />
    </linearGradient>
    <linearGradient
       id="paint28_linear_14_15516"
       x1="71.419998"
       x2="71.419998"
       y1="40.23"
       y2="55.84"
       gradientUnits="userSpaceOnUse"
       gradientTransform="translate(-1.3277131,-16.331482)">
      <stop
         stop-color="#F2F2F2"
         offset="0"
         id="stop143" />
      <stop
         stop-color="#213642"
         offset="1"
         id="stop144" />
    </linearGradient>
    <linearGradient
       id="paint29_linear_14_15516"
       x1="29.530001"
       x2="29.530001"
       y1="50.84"
       y2="85.940002"
       gradientUnits="userSpaceOnUse"
       gradientTransform="translate(-1.3277131,-16.331482)">
      <stop
         stop-color="#213642"
         offset="0"
         id="stop145" />
      <stop
         stop-color="#6B7279"
         offset="1"
         id="stop146" />
    </linearGradient>
    <linearGradient
       id="paint30_linear_14_15516"
       x1="53.689999"
       x2="53.689999"
       y1="43.860001"
       y2="60.57"
       gradientUnits="userSpaceOnUse"
       gradientTransform="translate(-1.3277131,-16.331482)">
      <stop
         stop-color="#213642"
         offset="0"
         id="stop147" />
      <stop
         stop-color="#B4B9BD"
         offset=".526"
         id="stop148" />
      <stop
         stop-color="#213642"
         offset="1"
         id="stop149" />
    </linearGradient>
    <linearGradient
       id="paint31_linear_14_15516"
       x1="56.310001"
       x2="56.310001"
       y1="54.25"
       y2="66.610001"
       gradientUnits="userSpaceOnUse"
       gradientTransform="translate(-1.3277131,-16.331482)">
      <stop
         stop-color="#948200"
         offset="0"
         id="stop150" />
      <stop
         stop-color="#ff0"
         offset="0.56085253"
         id="stop151" />
      <stop
         stop-color="#948200"
         offset="1"
         id="stop152" />
    </linearGradient>
    <radialGradient
       id="paint32_radial_14_15516"
       cx="0.23807932"
       cy="-0.024455102"
       r="1"
       gradientTransform="matrix(3.184,0,0,3.163,51.432363,75.135847)"
       gradientUnits="userSpaceOnUse"
       fx="0.23807932"
       fy="-0.024455102">
      <stop
         stop-color="#FEFFFD"
         offset="0"
         id="stop153" />
      <stop
         stop-color="#F0FF00"
         offset=".4844"
         id="stop154" />
      <stop
         stop-color="#FEFFFD"
         stop-opacity=".25"
         offset="1"
         id="stop155" />
    </radialGradient>
  </defs>
</svg>
