<?xml version="1.0" encoding="UTF-8"?>
<svg version="1.1" xmlns="http://www.w3.org/2000/svg" width="500" height="500">
<path d="M0 0 C0.90332062 -0.00701431 1.80664124 -0.01402863 2.73733521 -0.02125549 C5.63223319 -0.03864633 8.52692671 -0.04510661 11.421875 -0.046875 C12.41052551 -0.04754974 13.39917603 -0.04822449 14.41778564 -0.04891968 C28.55712256 -0.033563 42.28505804 0.31666714 56.171875 3.203125 C57.03683594 3.36941406 57.90179688 3.53570312 58.79296875 3.70703125 C123.78912037 16.29595588 179.10986309 54.80508057 216.171875 109.203125 C218.99386849 113.51844495 221.62628707 117.93232002 224.16308594 122.42041016 C225.14306341 124.15220964 226.14544227 125.87127287 227.1484375 127.58984375 C244.60443634 158.20731833 255.19045928 195.72414907 255.375 231.03125 C255.38201431 231.93457062 255.38902863 232.83789124 255.39625549 233.76858521 C255.41364633 236.66348319 255.42010661 239.55817671 255.421875 242.453125 C255.42254974 243.44177551 255.42322449 244.43042603 255.42391968 245.44903564 C255.408563 259.58837256 255.05833286 273.31630804 252.171875 287.203125 C252.00558594 288.06808594 251.83929688 288.93304688 251.66796875 289.82421875 C242.30782046 338.15031772 218.83601509 379.75614883 185.171875 415.203125 C183.99431641 416.44449219 183.99431641 416.44449219 182.79296875 417.7109375 C177.29053801 423.36101844 171.35954624 428.32247522 165.171875 433.203125 C164.20765625 433.98429687 163.2434375 434.76546875 162.25 435.5703125 C123.92924503 466.01294272 73.89254752 485.98995553 24.65234375 486.44140625 C23.76419479 486.45124542 22.87604584 486.46108459 21.96098328 486.47122192 C-50.78284772 487.11030171 -112.51865453 462.61229274 -164.515625 411.703125 C-169.6719295 406.48043031 -174.34757863 401.01264699 -178.828125 395.203125 C-179.25061523 394.6570459 -179.67310547 394.1109668 -180.10839844 393.54833984 C-187.78626283 383.55702105 -194.49186341 373.08779221 -200.828125 362.203125 C-201.1900293 361.59065918 -201.55193359 360.97819336 -201.92480469 360.34716797 C-220.00873301 329.48335345 -230.84404411 291.1920122 -231.03125 255.375 C-231.03826431 254.47167938 -231.04527863 253.56835876 -231.05250549 252.63766479 C-231.06989633 249.74276681 -231.07635661 246.84807329 -231.078125 243.953125 C-231.07879974 242.96447449 -231.07947449 241.97582397 -231.08016968 240.95721436 C-231.064813 226.81787744 -230.71458286 213.08994196 -227.828125 199.203125 C-227.57869141 197.90568359 -227.57869141 197.90568359 -227.32421875 196.58203125 C-216.46256093 140.5036942 -185.31064703 87.28114853 -139.828125 52.203125 C-139.2820459 51.78063477 -138.7359668 51.35814453 -138.17333984 50.92285156 C-128.18202105 43.24498717 -117.71279221 36.53938659 -106.828125 30.203125 C-106.21565918 29.8412207 -105.60319336 29.47931641 -104.97216797 29.10644531 C-74.10835345 11.02251699 -35.8170122 0.18720589 0 0 Z " fill="#313131" transform="translate(238.828125,7.796875)"/>
<path d="M0 0 C3.63067145 1.25677089 5.56137299 2.37985282 8.25 5.125 C8.86473083 8.41966248 8.86473083 8.41966248 8.84936523 12.38452148 C8.85330795 13.10859192 8.85725067 13.83266235 8.86131287 14.57867432 C8.86801726 16.96852159 8.83887277 19.35645139 8.80859375 21.74609375 C8.80434215 23.40991343 8.80201491 25.07373905 8.80152893 26.73756409 C8.79536429 30.22383531 8.77267159 33.70946385 8.73706055 37.19555664 C8.6918232 41.6589075 8.67703629 46.12167571 8.67332363 50.58523464 C8.66888873 54.02112042 8.65357319 57.45688451 8.6344471 60.89271736 C8.62558183 62.53810693 8.61884364 64.18350941 8.61428642 65.82891655 C8.605216 68.13152595 8.58280049 70.43361615 8.55639648 72.73608398 C8.54575668 74.04528305 8.53511688 75.35448212 8.52415466 76.70335388 C8.20931286 80.63280453 7.61117582 83.74421923 4.79223633 86.60375977 C4.22786865 87.00393311 3.66350098 87.40410645 3.08203125 87.81640625 C2.44370361 88.27998535 1.80537598 88.74356445 1.14770508 89.22119141 C0.4595874 89.70507324 -0.22853027 90.18895508 -0.9375 90.6875 C-2.39741168 91.74652551 -3.85570758 92.80778149 -5.3125 93.87109375 C-6.05371094 94.40976074 -6.79492188 94.94842773 -7.55859375 95.50341797 C-10.92546221 97.99481061 -14.18307896 100.61437132 -17.4375 103.25 C-22.54781366 107.3734118 -27.70246609 111.4261754 -32.91796875 115.41552734 C-36.78117326 118.37285269 -40.61602324 121.36397459 -44.4375 124.375 C-49.77740286 128.5809698 -55.13326886 132.76581334 -60.5 136.9375 C-61.25539063 137.5248291 -62.01078125 138.1121582 -62.7890625 138.71728516 C-66.64768115 141.71652871 -70.50829272 144.71317635 -74.37109375 147.70703125 C-82.09984453 153.70144542 -89.79040956 159.73602 -97.41430664 165.86328125 C-103.45583006 170.71014397 -109.5950238 175.42359752 -115.75 180.125 C-124.20897248 186.60152181 -132.61614537 193.13993101 -140.98388672 199.73388672 C-143.90371045 202.03374235 -146.82700451 204.32917785 -149.75 206.625 C-153.91976759 209.90074412 -158.08941594 213.17663718 -162.25610352 216.45629883 C-163.44607846 217.39087707 -164.63793157 218.32306959 -165.83178711 219.25268555 C-168.41967154 221.27031445 -170.96039039 223.30529119 -173.453125 225.44140625 C-174.23171875 226.10011719 -175.0103125 226.75882813 -175.8125 227.4375 C-176.46347656 228.01113281 -177.11445313 228.58476562 -177.78515625 229.17578125 C-179.75 230.125 -179.75 230.125 -182.04345703 229.37353516 C-184.81900701 228.09316689 -187.39616467 226.66623576 -190.01953125 225.09765625 C-191.057146 224.47987305 -192.09476074 223.86208984 -193.16381836 223.22558594 C-194.2853833 222.55301758 -195.40694824 221.88044922 -196.5625 221.1875 C-197.75181679 220.47782512 -198.94135641 219.76852355 -200.13110352 219.05957031 C-202.67263011 217.54466309 -205.21308762 216.02798347 -207.75292969 214.51025391 C-211.81227488 212.0859955 -215.87806719 209.67269359 -219.9453125 207.26171875 C-221.31966312 206.4469429 -222.69401207 205.63216425 -224.06835938 204.81738281 C-224.74777588 204.41459106 -225.42719238 204.01179932 -226.12719727 203.59680176 C-236.21746561 197.61306578 -246.29931858 191.61598456 -256.34692383 185.56079102 C-261.08655049 182.70863954 -265.84406232 179.88828539 -270.61328125 177.0859375 C-271.82710458 176.37140163 -273.04089025 175.65680178 -274.25463867 174.94213867 C-276.59730136 173.56281318 -278.94280728 172.18879185 -281.2902832 170.81762695 C-297.74266323 161.13233677 -297.74266323 161.13233677 -302.75 156.125 C-302.96382585 153.71331529 -303.05408972 151.41486761 -303.05639648 149.00073242 C-303.06472 148.26720047 -303.07304352 147.53366852 -303.08161926 146.77790833 C-303.10577541 144.34537493 -303.11449887 141.91310949 -303.12109375 139.48046875 C-303.13005715 137.79136574 -303.13917894 136.10226357 -303.14845276 134.41316223 C-303.16496148 130.8681139 -303.17264604 127.32316021 -303.17553711 123.77807617 C-303.18091721 119.23818351 -303.21857293 114.69918224 -303.26428127 110.15954113 C-303.29404743 106.66877511 -303.30126059 103.1782236 -303.30226326 99.68734169 C-303.30646793 98.01398964 -303.31891226 96.34063709 -303.33978081 94.6674099 C-303.36668261 92.32342793 -303.36187485 89.98150944 -303.34936523 87.63745117 C-303.36419952 86.94791351 -303.37903381 86.25837585 -303.39431763 85.54794312 C-303.33681037 81.75801017 -302.82223133 80.21429071 -300.40785217 77.22969055 C-296.88125066 74.43705786 -295.27726588 73.90593875 -290.75 74.125 C-286.8437269 75.71939718 -283.3440265 77.92937654 -279.75 80.125 C-278.58388088 80.80526394 -277.41581798 81.48220396 -276.24609375 82.15625 C-265.82269944 88.18454177 -255.55405015 94.47426063 -245.26782227 100.73242188 C-235.9193395 106.41987661 -226.5463747 112.06516914 -217.15625 117.68359375 C-213.72067833 119.74159042 -210.28921294 121.80639509 -206.85766602 123.87109375 C-204.33355329 125.38731014 -201.80572296 126.89716238 -199.27734375 128.40625 C-196.50067032 130.0654181 -193.74232365 131.74724558 -191.00390625 133.46875 C-189.95074219 134.1184375 -188.89757812 134.768125 -187.8125 135.4375 C-186.93722656 135.99050781 -186.06195313 136.54351562 -185.16015625 137.11328125 C-182.09330552 138.40066268 -180.86348549 138.26629299 -177.75 137.125 C-174.8722586 135.28421777 -174.8722586 135.28421777 -171.9375 132.875 C-171.1031543 132.21661133 -171.1031543 132.21661133 -170.25195312 131.54492188 C-168.40821849 130.08335054 -166.57761482 128.60667177 -164.75 127.125 C-164.10498535 126.60228516 -163.4599707 126.07957031 -162.79541016 125.54101562 C-160.0916182 123.34621168 -157.39030925 121.14844007 -154.6940918 118.94433594 C-150.59631065 115.60013021 -146.4562502 112.3317452 -142.25 109.125 C-137.36373832 105.39839498 -132.57184419 101.57469522 -127.8125 97.6875 C-121.09139936 92.19803985 -114.30249278 86.8047912 -107.46337891 81.46337891 C-104.57677177 79.20855128 -101.69395563 76.94890578 -98.8125 74.6875 C-98.23741699 74.23616699 -97.66233398 73.78483398 -97.06982422 73.31982422 C-92.14017665 69.44447053 -87.24454952 65.52742438 -82.35351562 61.60351562 C-78.19456858 58.27033676 -74.0114375 54.97009972 -69.8125 51.6875 C-64.80225557 47.77012972 -59.85886026 43.77831342 -54.9375 39.75 C-48.79108329 34.72219543 -42.52834323 29.87428296 -36.1940918 25.08618164 C-30.22662824 20.54981376 -24.44075889 15.8133876 -18.72094727 10.96899414 C-5.87230609 0.19574354 -5.87230609 0.19574354 0 0 Z " fill="#EAEAEA" transform="translate(401.75,133.875)"/>
</svg>
