<?xml version="1.0" encoding="UTF-8"?>
<svg version="1.1" xmlns="http://www.w3.org/2000/svg" width="456" height="64">
<path d="M0 0 C0.66 0.66 1.32 1.32 2 2 C5.25303206 1.61404704 7.69322736 0.10921631 10.5 -1.5 C18.15562195 -5.38982264 26.619211 -6.06013549 34.91015625 -3.78125 C42.12648583 -1.0835567 47.18828802 3.28701679 51 10 C52.8936533 14.70257962 53.28142676 18.94302731 53.23046875 23.953125 C53.23001053 24.6945575 53.22955231 25.43598999 53.2290802 26.19989014 C53.2260753 27.75632339 53.21824226 29.31275412 53.20581055 30.86914062 C53.1874491 33.25661799 53.18530185 35.64370908 53.18554688 38.03125 C53.18063484 39.54687837 53.1748079 41.0625041 53.16796875 42.578125 C53.16685593 43.2926886 53.1657431 44.0072522 53.16459656 44.74346924 C53.11611677 49.76776647 53.11611677 49.76776647 52 52 C46.94953685 52.99353373 44.55447447 53.43048135 40 51 C39.98541748 50.09757568 39.97083496 49.19515137 39.95581055 48.26538086 C39.89444423 44.88979993 39.82023671 41.51499304 39.73754883 38.13989258 C39.70447017 36.68427006 39.67638603 35.22852453 39.65356445 33.77270508 C39.61970079 31.66955564 39.5673764 29.56751625 39.51171875 27.46484375 C39.48553467 26.202771 39.45935059 24.94069824 39.43237305 23.64038086 C38.93219325 19.42909858 37.93876852 16.7563095 36 13 C31.75326935 9.78905731 27.57609995 9.48490663 22.40625 9.640625 C18.84307242 10.17278788 16.67876554 11.65608015 14 14 C11.5200607 17.71990895 11.71985047 19.74423975 11.65625 24.1875 C11.6416272 24.88641357 11.62700439 25.58532715 11.61193848 26.30541992 C11.56547549 28.53688888 11.53125 30.76826923 11.5 33 C11.45886279 35.93782989 11.40520825 38.87503277 11.34375 41.8125 C11.32505859 43.11832031 11.30636719 44.42414062 11.28710938 45.76953125 C11 49 11 49 9 52 C2.09774835 53.55857295 2.09774835 53.55857295 -1.10009766 51.93139648 C-3.91406127 49.07078659 -3.48260402 46.86908598 -3.46875 42.91796875 C-3.47932434 41.88027092 -3.47932434 41.88027092 -3.4901123 40.8216095 C-3.51956302 37.86744947 -3.50302522 34.91394985 -3.49072266 31.9597168 C-3.48832967 29.79957257 -3.50932999 27.64048178 -3.53125 25.48046875 C-3.52673828 24.19035889 -3.52222656 22.90024902 -3.51757812 21.57104492 C-4.08065068 17.40299723 -5.39621765 15.25974573 -8 12 C-12.40312348 8.89085567 -17.84608754 9.39585107 -23 10 C-26.51769053 11.66627446 -28.34650784 12.72934437 -30.12866211 16.19458008 C-31.19110963 19.61530983 -31.30767767 22.6178639 -31.37890625 26.19921875 C-31.39590073 26.87547806 -31.4128952 27.55173737 -31.43040466 28.24848938 C-31.48324429 30.39473306 -31.52371727 32.54096 -31.5625 34.6875 C-31.60647459 36.84465785 -31.6531567 39.00166955 -31.70530701 41.15864563 C-31.7517296 43.10782626 -31.78929092 45.05721192 -31.82641602 47.0065918 C-32 50 -32 50 -33 52 C-38.05046315 52.99353373 -40.44552553 53.43048135 -45 51 C-45.12468733 46.05624332 -45.2148439 41.11342493 -45.2746582 36.16845703 C-45.29962211 34.49056023 -45.33360619 32.81277014 -45.37719727 31.13525391 C-45.66009241 19.95923161 -45.48489 11.48214273 -37.9375 2.5625 C-26.71466367 -6.48817446 -12.48665379 -7.63073287 0 0 Z " fill="#FFFFFF" transform="translate(188,8)"/>
<path d="M0 0 C6.04843583 6.09958539 9.04824425 10.86139981 9.875 19.5625 C9.99617188 20.67753906 10.11734375 21.79257812 10.2421875 22.94140625 C10 26 10 26 8.42651367 28.16235352 C5.1441863 30.64812453 3.02326603 30.4876383 -1.06640625 30.4609375 C-2.07936012 30.45956284 -2.07936012 30.45956284 -3.11277771 30.4581604 C-4.53578754 30.45213527 -5.95878534 30.43642157 -7.3815918 30.41162109 C-9.55890624 30.37506035 -11.73451967 30.37060225 -13.91210938 30.37109375 C-24.5567037 30.29553087 -24.5567037 30.29553087 -28 28 C-28.3984375 25.6875 -28.3984375 25.6875 -28.375 23 C-28.38273437 22.113125 -28.39046875 21.22625 -28.3984375 20.3125 C-28.20121094 19.1678125 -28.20121094 19.1678125 -28 18 C-24.92308234 15.94872156 -24.06355001 15.72739128 -20.55078125 15.5859375 C-19.27944336 15.52792969 -19.27944336 15.52792969 -17.98242188 15.46875 C-17.10134766 15.4378125 -16.22027344 15.406875 -15.3125 15.375 C-14.41982422 15.33632813 -13.52714844 15.29765625 -12.60742188 15.2578125 C-10.4051538 15.16359782 -8.20289278 15.07798412 -6 15 C-10.87033131 10.00150208 -12.85430681 8.83885906 -19.63671875 8.71679688 C-20.93029297 8.70229492 -20.93029297 8.70229492 -22.25 8.6875 C-23.09691406 8.65849609 -23.94382812 8.62949219 -24.81640625 8.59960938 C-30.36666412 8.54350257 -33.67851718 9.1683747 -38 13 C-41.28932694 17.58224157 -40.58849419 23.6317847 -40 29 C-38.82818116 32.16511893 -37.15784443 34.22424591 -34.31469727 36.12915039 C-31.07148183 37.3493328 -28.17491882 37.27579988 -24.71484375 37.30859375 C-23.28319881 37.3337397 -21.85155828 37.35913792 -20.41992188 37.38476562 C-18.17278047 37.41356566 -15.92571524 37.43759807 -13.6784668 37.45629883 C-11.50270707 37.47792571 -9.32780683 37.51734253 -7.15234375 37.55859375 C-5.85288818 37.57204834 -4.55343262 37.58550293 -3.21459961 37.59936523 C0 38 0 38 1.91992188 39.40649414 C3.26193182 41.38644416 3.43298892 42.61814821 3.4375 45 C3.45683594 45.680625 3.47617187 46.36125 3.49609375 47.0625 C2.77153862 49.89225861 1.48275012 50.52188443 -1 52 C-3.86572266 52.37231445 -3.86572266 52.37231445 -7.1640625 52.36328125 C-8.36933594 52.36263672 -9.57460938 52.36199219 -10.81640625 52.36132812 C-12.07324219 52.34521484 -13.33007812 52.32910156 -14.625 52.3125 C-15.85863281 52.31572266 -17.09226562 52.31894531 -18.36328125 52.32226562 C-29.36567039 52.25795836 -38.81563487 52.00911106 -47 44 C-52.96623988 37.12387604 -54.21553403 32.26569111 -54.3125 23.3125 C-54.35600586 22.00249023 -54.35600586 22.00249023 -54.40039062 20.66601562 C-54.47255419 13.23316837 -52.7699419 8.12175921 -47.81640625 2.5390625 C-46.70072266 1.59160156 -46.70072266 1.59160156 -45.5625 0.625 C-44.82128906 -0.02210937 -44.08007812 -0.66921875 -43.31640625 -1.3359375 C-32.31556149 -9.23873661 -10.30139091 -8.69895232 0 0 Z " fill="#FFFFFF" transform="translate(402,9)"/>
<path d="M0 0 C5.75518095 5.15236555 8.51846452 11.864359 9.23046875 19.48828125 C9.57574643 28.13136134 7.72631718 35.25207713 3.2265625 42.64453125 C-5.54647487 50.93017765 -15.09599852 52.19778495 -26.84765625 51.94921875 C-37.2665254 51.35971324 -43.84724057 48.58135292 -50.8984375 40.76953125 C-56.50523644 32.85405039 -55.84536907 23.07079976 -55.0234375 13.76953125 C-53.47991961 6.0933785 -48.28317524 1.17140417 -42.0234375 -3.23046875 C-29.39827248 -8.98298755 -11.2929629 -8.20036705 0 0 Z M-40.8984375 14.39453125 C-42.81287695 20.13784959 -42.81287695 25.40121291 -40.8984375 31.14453125 C-38.2767014 34.8149618 -35.42735906 37.34429271 -30.85107422 38.15380859 C-28.39632802 38.30675386 -25.98229002 38.31541963 -23.5234375 38.26953125 C-22.69457031 38.285 -21.86570312 38.30046875 -21.01171875 38.31640625 C-15.56065706 38.28174131 -12.25988587 37.49556415 -8.0234375 33.76953125 C-5.16784764 30.10666494 -4.61321532 27.37189597 -4.6484375 22.76953125 C-4.64070313 21.75890625 -4.63296875 20.74828125 -4.625 19.70703125 C-5.26971595 14.95383132 -7.05028337 12.6254379 -10.6171875 9.48828125 C-15.07407761 7.23939174 -18.60519219 7.1777444 -23.5234375 7.26953125 C-24.76673828 7.24632812 -24.76673828 7.24632812 -26.03515625 7.22265625 C-32.61750126 7.26451536 -36.92001943 8.82474595 -40.8984375 14.39453125 Z " fill="#FEFEFE" transform="translate(55.0234375,9.23046875)"/>
<path d="M0 0 C2.15346747 1.5722013 2.90726802 2.43237391 3.34057617 5.0847168 C3.32486572 5.86500244 3.30915527 6.64528809 3.29296875 7.44921875 C3.28330078 8.29677734 3.27363281 9.14433594 3.26367188 10.01757812 C3.23853516 10.89865234 3.21339844 11.77972656 3.1875 12.6875 C3.17396484 13.58017578 3.16042969 14.47285156 3.14648438 15.39257812 C3.11114079 17.59566166 3.06180493 19.79752582 3 22 C9.80622907 21.70278476 12.88290227 20.13654355 17.75 15.5 C18.97501331 14.40971521 20.20159969 13.32119553 21.4296875 12.234375 C23.14787962 10.6860736 24.85842268 9.13237702 26.54785156 7.55273438 C32.75236715 1.81718886 37.36939329 -0.72881855 45.75 -0.5625 C48.1836036 -0.44757831 50.57472229 -0.24929885 53 0 C53.495 1.98 53.495 1.98 54 4 C31.39869281 23.73420479 31.39869281 23.73420479 25 28 C25 28.66 25 29.32 25 30 C26.50787161 31.37491299 28.08539761 32.67364462 29.6875 33.9375 C30.68394531 34.73414063 31.68039063 35.53078125 32.70703125 36.3515625 C33.24150879 36.77856445 33.77598633 37.20556641 34.32666016 37.64550781 C37.76870378 40.43168494 41.12476336 43.32077608 44.49487305 46.19311523 C47.62084646 48.85134243 50.78249951 51.45330681 54 54 C53.67 55.32 53.34 56.64 53 58 C36.42012882 58.76817936 36.42012882 58.76817936 31 54 C30.2471875 53.34386719 29.494375 52.68773437 28.71875 52.01171875 C27.00707696 50.48230719 25.30546158 48.94157632 23.61328125 47.390625 C21.06178122 45.05651735 18.50462538 42.74588588 15.875 40.5 C15.12992188 39.8503125 14.38484375 39.200625 13.6171875 38.53125 C10.04081713 36.43880644 7.11616661 36.31328118 3 36 C3.01571045 36.55985596 3.0314209 37.11971191 3.04760742 37.6965332 C3.10999848 40.2350859 3.14900218 42.77347729 3.1875 45.3125 C3.21263672 46.19357422 3.23777344 47.07464844 3.26367188 47.98242188 C3.27817383 49.25375977 3.27817383 49.25375977 3.29296875 50.55078125 C3.31653442 51.72120972 3.31653442 51.72120972 3.34057617 52.9152832 C2.90726802 55.56762609 2.15346747 56.4277987 0 58 C-4.36706908 58.38991688 -6.30513897 58.46324069 -10 56 C-10.38095093 53.72290039 -10.38095093 53.72290039 -10.38818359 50.84765625 C-10.39764008 49.77314209 -10.40709656 48.69862793 -10.4168396 47.59155273 C-10.41076691 46.42696533 -10.40469421 45.26237793 -10.3984375 44.0625 C-10.40130768 42.87148682 -10.40417786 41.68047363 -10.40713501 40.45336914 C-10.40917946 37.93147304 -10.40362317 35.40956122 -10.39111328 32.88769531 C-10.37506597 29.01591714 -10.39095019 25.145183 -10.41015625 21.2734375 C-10.40817389 18.82812268 -10.40433036 16.38280852 -10.3984375 13.9375 C-10.40451019 12.7729126 -10.41058289 11.6083252 -10.4168396 10.40844727 C-10.40738312 9.33393311 -10.39792664 8.25941895 -10.38818359 7.15234375 C-10.38579681 6.20351318 -10.38341003 5.25468262 -10.38095093 4.27709961 C-10.25523712 3.52565674 -10.12952332 2.77421387 -10 2 C-6.30513897 -0.46324069 -4.36706908 -0.38991688 0 0 Z " fill="#FFFFFF" transform="translate(82,3)"/>
<path d="M0 0 C4.69848506 3.87887104 8.80838478 8.55015433 10.75 14.375 C10.83518867 17.17926452 10.8658852 19.9579635 10.84765625 22.76171875 C10.8462413 23.57872757 10.84482635 24.39573639 10.84336853 25.23750305 C10.83777294 27.84587268 10.82522129 30.45415634 10.8125 33.0625 C10.80748443 34.83137897 10.80292162 36.60025928 10.79882812 38.36914062 C10.78780496 42.70446019 10.77054338 47.03971552 10.75 51.375 C6.74681565 53.66757254 4.26356535 53.37801452 -0.25 52.375 C-3.12945665 49.49554335 -2.50486123 47.41615327 -2.5234375 43.390625 C-2.54373883 41.96613815 -2.56458983 40.54165905 -2.5859375 39.1171875 C-2.60847106 36.87460817 -2.62498077 34.6323355 -2.63085938 32.38964844 C-2.64043474 30.22274417 -2.67428191 28.05721759 -2.7109375 25.890625 C-2.71915527 24.59415039 -2.72737305 23.29767578 -2.73583984 21.96191406 C-3.40512059 17.29283872 -5.23084104 13.9556086 -8.9765625 11.0234375 C-12.49996064 10.01848202 -15.99175159 10.00624269 -19.625 10 C-20.3675 9.97550781 -21.11 9.95101563 -21.875 9.92578125 C-27.09627682 9.89810664 -30.20314623 10.79273971 -34.25 14.375 C-36.35945065 18.44047848 -36.5386398 22.03564469 -36.62890625 26.57421875 C-36.64590073 27.25047806 -36.6628952 27.92673737 -36.68040466 28.62348938 C-36.73324429 30.76973306 -36.77371727 32.91596 -36.8125 35.0625 C-36.85647459 37.21965785 -36.9031567 39.37666955 -36.95530701 41.53364563 C-37.0017296 43.48282626 -37.03929092 45.43221192 -37.07641602 47.3815918 C-37.25 50.375 -37.25 50.375 -38.25 52.375 C-43.30046315 53.36853373 -45.69552553 53.80548135 -50.25 51.375 C-50.37468733 46.43124332 -50.4648439 41.48842493 -50.5246582 36.54345703 C-50.54962211 34.86556023 -50.58360619 33.18777014 -50.62719727 31.51025391 C-50.91009241 20.33423161 -50.73489 11.85714273 -43.1875 2.9375 C-31.96189717 -6.11540551 -12.45344252 -8.69614202 0 0 Z " fill="#FFFFFF" transform="translate(328.25,7.625)"/>
<path d="M0 0 C0.804375 0.37125 1.60875 0.7425 2.4375 1.125 C5.63066293 2.21534832 7.57859681 1.44965987 10.7421875 0.5234375 C14.75353468 -0.4065288 18.9164602 -0.49321618 23 0 C23.99 0.66 24.98 1.32 26 2 C26.36328125 4.3125 26.36328125 4.3125 26.3125 7 C26.30863281 7.886875 26.30476563 8.77375 26.30078125 9.6875 C26 12 26 12 24 14 C22.08972135 14.2001789 20.16973489 14.31291902 18.25 14.375 C12.85836073 14.74995813 9.93811069 15.2691583 6 19 C3.84834594 23.14838903 3.73524698 26.78833056 3.69140625 31.41796875 C3.6662719 32.85091598 3.64087355 34.28385859 3.61523438 35.71679688 C3.58637927 37.96182299 3.56234002 40.20676974 3.54370117 42.4519043 C3.52212742 44.62848215 3.4827297 46.8041897 3.44140625 48.98046875 C3.42795166 50.27879639 3.41449707 51.57712402 3.40063477 52.91479492 C3.26842529 53.9329126 3.13621582 54.95103027 3 56 C-0.68717438 58.45811625 -2.64345704 58.31118164 -7 58 C-10 56 -10 56 -11 53 C-11.09667452 51.44112749 -11.13812513 49.87850137 -11.14526367 48.31665039 C-11.15164352 47.36879166 -11.15802338 46.42093292 -11.16459656 45.4443512 C-11.16626579 43.9114872 -11.16626579 43.9114872 -11.16796875 42.34765625 C-11.17129715 41.29597763 -11.17462555 40.24429901 -11.17805481 39.16075134 C-11.18311926 36.93570391 -11.18546328 34.71064889 -11.18530273 32.4855957 C-11.18748911 29.07946277 -11.2056498 25.67365373 -11.22460938 22.26757812 C-11.22754339 20.10677194 -11.22952813 17.94596422 -11.23046875 15.78515625 C-11.23765427 14.76527115 -11.24483978 13.74538605 -11.25224304 12.69459534 C-11.24916641 11.74358444 -11.24608978 10.79257355 -11.24291992 9.81274414 C-11.24434494 8.97796036 -11.24576996 8.14317657 -11.24723816 7.28309631 C-10.97296266 4.75032639 -10.35376862 3.14894692 -9 1 C-5.96967558 -0.51516221 -3.34885038 -0.17028053 0 0 Z " fill="#FFFFFF" transform="translate(430,3)"/>
<path d="M0 0 C2.15869783 3.23804674 2.25491344 4.14360792 2.2746582 7.8828125 C2.28419022 8.87394043 2.29372223 9.86506836 2.30354309 10.88623047 C2.30263168 11.95502441 2.30172028 13.02381836 2.30078125 14.125 C2.30506638 15.22344238 2.3093515 16.32188477 2.31376648 17.45361328 C2.31951185 19.77701121 2.32000853 22.10042713 2.31567383 24.42382812 C2.31251244 27.98598766 2.33597628 31.54731812 2.36132812 35.109375 C2.36360087 37.36458228 2.36430473 39.6197918 2.36328125 41.875 C2.372491 42.94379395 2.38170074 44.01258789 2.39118958 45.11376953 C2.38496078 46.10489746 2.37873199 47.09602539 2.37231445 48.1171875 C2.37294388 48.98972168 2.3735733 49.86225586 2.3742218 50.76123047 C1.91906506 53.48419061 1.16302941 54.33695295 -1 56 C-4.28964898 57.21197594 -5.52498292 57.21591686 -8.75 55.75 C-11 54 -11 54 -12 51 C-12.10106984 49.50782531 -12.14829525 48.01165186 -12.16113281 46.51611328 C-12.17074036 45.61152374 -12.1803479 44.7069342 -12.19024658 43.77493286 C-12.19449646 42.79990814 -12.19874634 41.82488342 -12.203125 40.8203125 C-12.20882507 39.81539764 -12.21452515 38.81048279 -12.22039795 37.77511597 C-12.22984577 35.64842786 -12.23638107 33.52172513 -12.24023438 31.39501953 C-12.24994148 28.14459667 -12.28096785 24.89480574 -12.3125 21.64453125 C-12.31903006 19.57812875 -12.32428052 17.51172174 -12.328125 15.4453125 C-12.3404718 14.47433624 -12.3528186 13.50335999 -12.36553955 12.50296021 C-12.336941 3.82272297 -12.336941 3.82272297 -9 0 C-5.46474216 -1.17841928 -3.5797952 -0.91399027 0 0 Z " fill="#FFFFFF" transform="translate(264,4)"/>
</svg>
