<?xml version="1.0" encoding="UTF-8"?>
<svg version="1.1" xmlns="http://www.w3.org/2000/svg" width="88" height="88">
<path d="M0 0 C8.04787311 6.24328674 13.89640254 15.99598689 16 26 C16.95550977 41.80507147 14.79927487 53.50855689 4.375 65.9375 C0.16852484 70.45556592 -4.42696047 73.39924822 -10 76 C-10.64066406 76.32097656 -11.28132813 76.64195313 -11.94140625 76.97265625 C-21.06700579 80.81219422 -33.78407733 80.50270524 -43.0625 77.375 C-54.64306037 72.28308948 -63.98311208 64.44640258 -69 52.625 C-73.28080927 41.35814782 -73.71056298 29.08902602 -69.32421875 17.74609375 C-63.19888452 5.04370447 -53.93270977 -2.68421033 -41 -8 C-26.59717092 -11.91945841 -11.90589741 -8.54331226 0 0 Z M-56.75 11.8125 C-64.1148948 20.57302555 -65.5946726 29.86475565 -65 41 C-64.38175024 44.55078696 -64.38175024 44.55078696 -63 47 C-62.01 47.33 -61.02 47.66 -60 48 C-59.67 48.33 -59.34 48.66 -59 49 C-58.34 49.33 -57.68 49.66 -57 50 C-56.34 49.34 -55.68 48.68 -55 48 C-54.01 47.505 -54.01 47.505 -53 47 C-52.67 47.99 -52.34 48.98 -52 50 C-52 49.01 -52 48.02 -52 47 C-51.01 47.33 -50.02 47.66 -49 48 C-47.68 48 -46.36 48 -45 48 C-43.68 48 -42.36 48 -41 48 C-40.34 48.66 -39.68 49.32 -39 50 C-38.01 50 -37.02 50 -36 50 C-35.93941406 49.31292969 -35.87882812 48.62585937 -35.81640625 47.91796875 C-35.73261719 47.01691406 -35.64882813 46.11585937 -35.5625 45.1875 C-35.48128906 44.29417969 -35.40007813 43.40085938 -35.31640625 42.48046875 C-35 40 -35 40 -34 37 C-34.0085226 33.93186542 -34.13008967 30.87784785 -34.2578125 27.8125 C-33.95204163 24.47681778 -33.30020668 24.22600647 -31 22 C-30.12478599 18.98922084 -30.12478599 18.98922084 -29.6875 15.625 C-29.50574219 14.50351562 -29.32398438 13.38203125 -29.13671875 12.2265625 C-28.99407535 8.86017816 -29.50867014 6.98265972 -31 4 C-30.34 4 -29.68 4 -29 4 C-29 3.01 -29 2.02 -29 1 C-28.34 1 -27.68 1 -27 1 C-27 1.99 -27 2.98 -27 4 C-26.01 4 -25.02 4 -24 4 C-24.66 4.99 -25.32 5.98 -26 7 C-25.505 7.99 -25.505 7.99 -25 9 C-25.66 9 -26.32 9 -27 9 C-26.55208067 11.4814731 -26.09226182 13.9596645 -25.625 16.4375 C-25.49867187 17.14455078 -25.37234375 17.85160156 -25.2421875 18.58007812 C-24.89377757 20.40052 -24.452957 22.20271648 -24 24 C-23.34 24.33 -22.68 24.66 -22 25 C-21.71232959 27.48523508 -21.53251504 29.88143448 -21.4375 32.375 C-21.22883692 37.76335143 -21.22883692 37.76335143 -20 43 C-19.96045766 45.33299825 -19.95598268 47.66708189 -20 50 C-19.113125 49.690625 -18.22625 49.38125 -17.3125 49.0625 C-14.53290845 48.1709329 -11.86863625 47.50622993 -9 47 C-8.67 47.99 -8.34 48.98 -8 50 C-8 49.01 -8 48.02 -8 47 C-7.01 47.33 -6.02 47.66 -5 48 C-1.10540926 48.21081851 -1.10540926 48.21081851 2 47 C2.33 47.99 2.66 48.98 3 50 C3 49.01 3 48.02 3 47 C4.485 47.495 4.485 47.495 6 48 C9.56084108 43.35542468 10.11894964 38.70165255 10 33 C8.50243156 21.96451991 3.91184032 12.60665088 -4.78125 5.53515625 C-22.51969842 -6.73810119 -42.19448937 -3.69898696 -56.75 11.8125 Z M-29 17 C-28 20 -28 20 -28 20 Z M-27 17 C-27 18.98 -27 20.96 -27 23 C-26.67 23 -26.34 23 -26 23 C-26 21.02 -26 19.04 -26 17 C-26.33 17 -26.66 17 -27 17 Z M-30 20 C-29 23 -29 23 -29 23 Z M-30 25 C-30.33 26.32 -30.66 27.64 -31 29 C-30.34 29 -29.68 29 -29 29 C-29.33 27.68 -29.66 26.36 -30 25 Z M-27 25 C-27 26.32 -27 27.64 -27 29 C-26.34 29 -25.68 29 -25 29 C-25 27.68 -25 26.36 -25 25 C-25.66 25 -26.32 25 -27 25 Z M-33 26 C-32 29 -32 29 -32 29 Z M-23 26 C-22 30 -22 30 -22 30 Z M-30 41 C-26 42 -26 42 -26 42 Z M-28 44 C-27 46 -27 46 -27 46 Z M-47 47 C-47.33 47.99 -47.66 48.98 -48 50 C-47.34 50 -46.68 50 -46 50 C-46.33 49.01 -46.66 48.02 -47 47 Z M-4 47 C-4 47.99 -4 48.98 -4 50 C-3.34 49.67 -2.68 49.34 -2 49 C-2.66 48.34 -3.32 47.68 -4 47 Z M-26 48 C-25.34 48.66 -24.68 49.32 -24 50 C-24 49.34 -24 48.68 -24 48 C-24.66 48 -25.32 48 -26 48 Z M-14 48 C-13 50 -13 50 -13 50 Z M-33 50 C-32 52 -32 52 -32 52 Z M-39 51 C-39 51.99 -39 52.98 -39 54 C-38.01 54 -37.02 54 -36 54 C-36.33 53.01 -36.66 52.02 -37 51 C-37.66 51 -38.32 51 -39 51 Z M-19 51 C-19 51.99 -19 52.98 -19 54 C-18.01 54 -17.02 54 -16 54 C-16.33 53.01 -16.66 52.02 -17 51 C-17.66 51 -18.32 51 -19 51 Z M-56 53 C-56.33 53.66 -56.66 54.32 -57 55 C-56.01 54.67 -55.02 54.34 -54 54 C-54.66 53.67 -55.32 53.34 -56 53 Z M-50 53 C-50.33 53.66 -50.66 54.32 -51 55 C-50.01 54.67 -49.02 54.34 -48 54 C-48.66 53.67 -49.32 53.34 -50 53 Z M-23 53 C-22 56 -22 56 -22 56 Z M-7 53 C-7 53.99 -7 54.98 -7 56 C-6.34 56 -5.68 56 -5 56 C-5 55.01 -5 54.02 -5 53 C-5.66 53 -6.32 53 -7 53 Z M-1 53 C-1 53.99 -1 54.98 -1 56 C-0.34 55.34 0.32 54.68 1 54 C0.34 53.67 -0.32 53.34 -1 53 Z M-23 57 C-26.3 57.33 -29.6 57.66 -33 58 C-33 58.33 -33 58.66 -33 59 C-29.37 59 -25.74 59 -22 59 C-22.33 58.34 -22.66 57.68 -23 57 Z M-33 64 C-33.40729228 66.32156597 -33.74438677 68.6568787 -34 71 C-27.93949386 72.0812391 -27.93949386 72.0812391 -22 71 C-21.7497843 68.08365871 -21.7497843 68.08365871 -22 65 C-25.66684375 62.5554375 -28.93768811 61.96884405 -33 64 Z M-26 73 C-25 77 -25 77 -25 77 Z M-28 74 C-27 76 -27 76 -27 76 Z " fill="#215D72" transform="translate(72,9)"/>
<path d="" fill="#215D72" transform="translate(0,0)"/>
</svg>
